<svg width="2119" height="1327" viewBox="0 0 2119 1327" fill="none" xmlns="http://www.w3.org/2000/svg">
<mask id="mask0_73_6" style="mask-type:alpha" maskUnits="userSpaceOnUse" x="0" y="0" width="2119" height="1327">
<rect width="2119" height="1327" fill="#D9D9D9"/>
</mask>
<g mask="url(#mask0_73_6)">
<g clip-path="url(#clip0_73_6)">
<rect x="-1" y="935.097" width="1280" height="1280" rx="50" transform="rotate(-45 -1 935.097)" fill="#F35A4E"/>
<rect x="258.777" y="300.439" width="1280" height="1280" rx="50" transform="rotate(-0.480952 258.777 300.439)" fill="#26082F"/>
<rect x="197.187" y="934.792" width="1000" height="1000" rx="50" transform="rotate(-45 197.187 934.792)" fill="#F35A4E"/>
</g>
<g clip-path="url(#clip1_73_6)">
<rect x="308" y="290.097" width="1280" height="1280" rx="50" transform="rotate(-45 308 290.097)" fill="#26082F"/>
<rect x="567.777" y="-344.561" width="1280" height="1280" rx="50" transform="rotate(-0.480952 567.777 -344.561)" fill="#F35A4E"/>
<rect x="506.187" y="289.792" width="1000" height="1000" rx="50" transform="rotate(-45 506.187 289.792)" fill="#26082F"/>
</g>
</g>
<defs>
<clipPath id="clip0_73_6">
<rect x="-1" y="935.097" width="1280" height="1280" rx="50" transform="rotate(-45 -1 935.097)" fill="white"/>
</clipPath>
<clipPath id="clip1_73_6">
<rect x="308" y="290.097" width="1280" height="1280" rx="50" transform="rotate(-45 308 290.097)" fill="white"/>
</clipPath>
</defs>
</svg>
