<svg width="1919" height="2292" viewBox="0 0 1919 2292" fill="none" xmlns="http://www.w3.org/2000/svg">
<g clip-path="url(#clip0_98_5)">
<g clip-path="url(#clip1_98_5)">
<rect x="50" y="1448.18" width="1116.57" height="1116.57" rx="50" transform="rotate(-45 50 1448.18)" fill="#5C1756"/>
<rect x="281.519" y="811.743" width="1030.27" height="1200" rx="50" transform="rotate(-0.480952 281.519 811.743)" fill="#2596BE"/>
<rect x="236.359" y="1448.48" width="853.168" height="853.168" rx="50" transform="rotate(-45 236.359 1448.48)" fill="#5C1756"/>
</g>
<g clip-path="url(#clip2_98_5)">
<rect x="319.548" y="885.536" width="1116.57" height="1116.57" rx="50" transform="rotate(-45 319.548 885.536)" fill="#2596BE"/>
<rect x="561.507" y="322.625" width="1037.56" height="1037.56" rx="50" transform="rotate(-0.480952 561.507 322.625)" fill="#5C1756"/>
<rect x="509.348" y="885.419" width="847.826" height="847.826" rx="50" transform="rotate(-45 509.348 885.419)" fill="#2596BE"/>
</g>
</g>
<defs>
<clipPath id="clip0_98_5">
<rect width="1919" height="2292" fill="white"/>
</clipPath>
<clipPath id="clip1_98_5">
<rect x="50" y="1448.18" width="1116.57" height="1116.57" rx="50" transform="rotate(-45 50 1448.18)" fill="white"/>
</clipPath>
<clipPath id="clip2_98_5">
<rect x="319.548" y="885.536" width="1116.57" height="1116.57" rx="50" transform="rotate(-45 319.548 885.536)" fill="white"/>
</clipPath>
</defs>
</svg>
